HIERARCHY
ROOT Hips
{
	OFFSET 0.00000 0.00000 0.00000
	CHANNELS 6 Xposition Yposition Zposition Zrotation Yrotation Xrotation 
	JOINT LHipJoint
	{
		OFFSET 0 0 0
		CHANNELS 3 Zrotation Yrotation Xrotation
		JOINT LeftUpLeg
		{
			OFFSET 1.44960 -1.75505 0.85172
			CHANNELS 3 Zrotation Yrotation Xrotation
			JOINT LeftLeg
			{
				OFFSET 2.40573 -6.60971 0.00000
				CHANNELS 3 Zrotation Yrotation Xrotation
				JOINT LeftFoot
				{
					OFFSET 2.58773 -7.10974 0.00000
					CHANNELS 3 Zrotation Yrotation Xrotation
					JOINT LeftToeBase
					{
						OFFSET 0.18252 -0.50147 1.77316
						CHANNELS 3 Zrotation Yrotation Xrotation
						End Site
						{
							OFFSET 0.00000 -0.00000 0.92990
						}
					}
				}
			}
		}
	}
	JOINT RHipJoint
	{
		OFFSET 0 0 0
		CHANNELS 3 Zrotation Yrotation Xrotation
		JOINT RightUpLeg
		{
			OFFSET -1.40744 -1.75505 0.85172
			CHANNELS 3 Zrotation Yrotation Xrotation
			JOINT RightLeg
			{
				OFFSET -2.43714 -6.69600 0.00000
				CHANNELS 3 Zrotation Yrotation Xrotation
				JOINT RightFoot
				{
					OFFSET -2.51650 -6.91404 0.00000
					CHANNELS 3 Zrotation Yrotation Xrotation
					JOINT RightToeBase
					{
						OFFSET -0.25383 -0.69740 1.96384
						CHANNELS 3 Zrotation Yrotation Xrotation
						End Site
						{
							OFFSET -0.00000 -0.00000 1.04244
						}
					}
				}
			}
		}
	}
	JOINT LowerBack
	{
		OFFSET 0 0 0
		CHANNELS 3 Zrotation Yrotation Xrotation
		JOINT Spine
		{
			OFFSET 0.00579 2.14458 -0.24367
			CHANNELS 3 Zrotation Yrotation Xrotation
			JOINT Spine1
			{
				OFFSET 0.05899 2.16316 -0.04515
				CHANNELS 3 Zrotation Yrotation Xrotation
				JOINT Neck
				{
					OFFSET 0 0 0
					CHANNELS 3 Zrotation Yrotation Xrotation
					JOINT Neck1
					{
						OFFSET -0.01650 1.59577 0.24841
						CHANNELS 3 Zrotation Yrotation Xrotation
						JOINT Head
						{
							OFFSET -0.01016 1.63072 -0.17782
							CHANNELS 3 Zrotation Yrotation Xrotation
							End Site
							{
								OFFSET -0.00250 1.64111 -0.08717
							}
						}
					}
				}
				JOINT LeftShoulder
				{
					OFFSET 0 0 0
					CHANNELS 3 Zrotation Yrotation Xrotation
					JOINT LeftArm
					{
						OFFSET 3.17745 0.95174 -0.45729
						CHANNELS 3 Zrotation Yrotation Xrotation
						JOINT LeftForeArm
						{
							OFFSET 4.93485 -0.00000 0.00000
							CHANNELS 3 Zrotation Yrotation Xrotation
							JOINT LeftHand
							{
								OFFSET 3.41719 -0.00000 -0.00000
								CHANNELS 3 Zrotation Yrotation Xrotation
								JOINT LeftFingerBase
								{
									OFFSET 0 0 0
									CHANNELS 3 Zrotation Yrotation Xrotation
									JOINT LeftHandIndex1
									{
										OFFSET 0.62410 -0.00000 -0.00000
										CHANNELS 3 Zrotation Yrotation Xrotation
										End Site
										{
											OFFSET 0.50317 -0.00000 -0.00000
										}
									}
								}
								JOINT LThumb
								{
									OFFSET 0 0 0
									CHANNELS 3 Zrotation Yrotation Xrotation
									End Site
									{
										OFFSET 0.51085 -0.00000 0.51085
									}
								}
							}
						}
					}
				}
				JOINT RightShoulder
				{
					OFFSET 0 0 0
					CHANNELS 3 Zrotation Yrotation Xrotation
					JOINT RightArm
					{
						OFFSET -2.87924 1.13038 -0.75204
						CHANNELS 3 Zrotation Yrotation Xrotation
						JOINT RightForeArm
						{
							OFFSET -5.22034 -0.00000 0.00000
							CHANNELS 3 Zrotation Yrotation Xrotation
							JOINT RightHand
							{
								OFFSET -3.41809 -0.00000 -0.00000
								CHANNELS 3 Zrotation Yrotation Xrotation
								JOINT RightFingerBase
								{
									OFFSET 0 0 0
									CHANNELS 3 Zrotation Yrotation Xrotation
									JOINT RightHandIndex1
									{
										OFFSET -0.77534 -0.00000 -0.00000
										CHANNELS 3 Zrotation Yrotation Xrotation
										End Site
										{
											OFFSET -0.62510 -0.00000 -0.00000
										}
									}
								}
								JOINT RThumb
								{
									OFFSET 0 0 0
									CHANNELS 3 Zrotation Yrotation Xrotation
									End Site
									{
										OFFSET -0.63464 -0.00000 0.63464
									}
								}
							}
						}
					}
				}
			}
		}
	}
}
MOTION
Frames: 5
Frame Time: .0083333
-0.4123 17.3530 20.7381 -1.1731 12.3915 7.0883 0.0000 0.0000 0.0000 -11.8444 -10.0250 -3.8793 0.5091 4.5737 12.6967 0.5905 -6.0520 -13.7197 0.1408 -2.4185 -6.6639 0.0000 0.0000 0.0000 26.4895 -1.2586 -4.6445 -0.3905 -4.0125 11.1117 -0.1443 -12.9612 -20.1077 -0.6419 -5.1256 14.2671 3.8568 -2.6274 -0.0406 4.6242 -3.5034 0.1278 2.5855 -1.7457 0.2135 -6.3484 -2.5808 -9.4551 -5.0234 -0.3080 37.8978 -0.9982 -1.6410 14.7993 0.0000 -0.0000 0.0000 -90.5685 5.7679 30.1018 19.1405 -29.5929 -5.1001 -0.0000 -0.0000 3.8946 6.7822 42.8027 4.6200 -7.1250 0.0000 -0.0000 -43.0148 68.3804 -25.8859 0.0000 -0.0000 0.0000 83.5917 -2.4186 -28.6377 -6.8753 11.7138 -0.7061 0.0000 0.0000 12.5841 -16.7449 18.1714 -5.3603 7.1250 -0.0000 -0.0000 7.4113 -11.1818 5.8841
-0.4295 17.3511 20.7602 -0.9192 12.2507 7.2516 0.0000 0.0000 0.0000 -12.0539 -9.9675 -3.8359 0.4949 4.5106 12.5177 0.5937 -5.9316 -13.7484 0.1679 -2.6395 -7.2766 0.0000 0.0000 0.0000 26.3118 -0.5033 -4.4825 -0.4009 -4.0652 11.2602 -0.1514 -13.3324 -20.6603 -0.6511 -5.1616 14.3701 3.3197 -2.6949 -0.2339 4.5555 -3.6122 0.2108 2.7997 -1.8006 0.4377 -6.1153 -2.4781 -9.4550 -4.9395 -0.2566 37.7969 -0.9930 -1.5747 14.7417 -0.0000 0.0000 0.0000 -90.3073 5.6989 30.0903 19.2107 -29.6796 -5.1347 -0.0000 -0.0000 3.8785 7.4138 42.8970 5.0616 -7.1250 0.0000 -0.0000 -42.5701 68.6474 -25.8251 -0.0000 0.0000 0.0000 83.7912 -2.6765 -28.9065 -6.8100 11.6062 -0.6929 0.0000 0.0000 13.0436 -16.6796 17.8458 -5.2463 7.1250 -0.0000 -0.0000 7.4422 -11.5227 5.8565
-0.4317 17.3500 20.7688 -1.0483 12.3070 7.2693 0.0000 0.0000 0.0000 -11.8795 -9.8693 -3.9176 0.4964 4.5169 12.5356 0.5872 -5.9991 -13.6785 0.1839 -2.7620 -7.6168 0.0000 0.0000 0.0000 26.4856 -0.4087 -4.4303 -0.3950 -4.0356 11.1769 -0.1143 -13.5629 -20.5625 -0.6601 -5.1963 14.4693 3.4883 -2.7845 -0.1709 4.6207 -3.7274 0.2064 2.7763 -1.8579 0.3944 -6.2682 -2.4276 -9.5724 -4.7621 -0.1953 37.8766 -0.8878 -1.5515 14.8096 0.0000 -0.0000 0.0000 -90.3213 5.5855 30.1197 19.1547 -29.6105 -5.1071 -0.0000 -0.0000 3.5675 6.5264 43.2162 4.4793 -7.1250 0.0000 -0.0000 -44.0350 68.5867 -26.7809 0.0000 -0.0000 0.0000 83.8554 -3.0469 -28.6964 -6.7754 11.5491 -0.6860 0.0000 0.0000 12.3882 -16.8958 17.7089 -5.2787 7.1250 -0.0000 -0.0000 7.2949 -11.6392 5.7209
-0.4306 17.3478 20.7764 -1.1626 12.2841 7.3105 0.0000 0.0000 0.0000 -11.7575 -9.7819 -3.8237 0.4752 4.4210 12.2641 0.5796 -5.6271 -13.5703 0.1202 -2.2348 -6.1551 0.0000 0.0000 0.0000 26.6012 -0.3710 -4.5248 -0.4052 -4.0867 11.3207 -0.1736 -13.3267 -20.8879 -0.7502 -5.5322 15.4329 3.7290 -2.7280 -0.0978 4.6575 -3.6426 0.1351 2.6874 -1.8155 0.2655 -6.6330 -2.4599 -9.3838 -4.4051 -0.2984 37.8953 -0.6876 -1.5977 14.7811 -0.0000 0.0000 0.0000 -90.2228 5.5959 30.8116 19.1641 -29.6220 -5.1117 -0.0000 -0.0000 3.1872 6.8674 42.5605 4.6570 -7.1250 0.0000 -0.0000 -42.4890 68.2368 -25.3957 -0.0000 0.0000 0.0000 83.9281 -3.6949 -28.9510 -6.7411 11.4923 -0.6791 0.0000 0.0000 12.3179 -17.1570 18.1170 -5.4837 7.1250 -0.0000 -0.0000 7.1389 -11.1909 5.6629
-0.4379 17.3473 20.7912 -1.2600 12.1712 7.3250 0.0000 0.0000 0.0000 -11.6203 -9.7037 -3.7584 0.4672 4.3841 12.1598 0.6074 -5.7475 -13.8938 0.2720 -3.3547 -9.2678 0.0000 0.0000 0.0000 26.7611 -0.0953 -4.5353 -0.4121 -4.1209 11.4171 -0.1251 -13.6352 -20.7723 -0.6434 -5.1316 14.2842 3.7661 -2.6819 -0.1305 4.7449 -3.5849 0.1563 2.7548 -1.7863 0.3079 -6.9840 -2.4899 -9.3523 -4.1465 -0.3480 37.9830 -0.5277 -1.6362 14.8241 -0.0000 0.0000 0.0000 -90.2392 5.5998 31.1607 19.3529 -29.8548 -5.2053 -0.0000 -0.0000 2.8813 6.8981 42.8374 4.7024 -7.1250 0.0000 -0.0000 -42.9656 68.4415 -25.9084 -0.0000 0.0000 0.0000 83.8946 -4.0745 -29.6370 -6.6712 11.3768 -0.6653 0.0000 0.0000 12.9994 -17.2391 17.5185 -5.3362 7.1250 -0.0000 -0.0000 7.0615 -11.7966 5.5118
